<svg width="17" height="17" viewBox="0 0 17 17" fill="none" xmlns="http://www.w3.org/2000/svg">
<rect width="16" height="16" transform="translate(0.342773 0.0625)" fill="white" style="mix-blend-mode:multiply"/>
<path d="M13.3428 2.0625H11.3428V1.0625H10.3428V2.0625H6.34277V1.0625H5.34277V2.0625H3.34277C2.79277 2.0625 2.34277 2.5125 2.34277 3.0625V13.0625C2.34277 13.6125 2.79277 14.0625 3.34277 14.0625H13.3428C13.8928 14.0625 14.3428 13.6125 14.3428 13.0625V3.0625C14.3428 2.5125 13.8928 2.0625 13.3428 2.0625ZM13.3428 13.0625H3.34277V6.0625H13.3428V13.0625ZM13.3428 5.0625H3.34277V3.0625H5.34277V4.0625H6.34277V3.0625H10.3428V4.0625H11.3428V3.0625H13.3428V5.0625Z" fill="#262833"/>
</svg>
