<svg width="21" height="22" viewBox="0 0 21 22" fill="none" xmlns="http://www.w3.org/2000/svg">
<path d="M20.25 17H17.25V14H15.75V17H12.75V18.5H15.75V21.5H17.25V18.5H20.25V17Z" fill="#A3A3A3"/>
<path d="M15.75 2.75H13.5V2C13.4989 1.60253 13.3404 1.22166 13.0594 0.940608C12.7783 0.659552 12.3975 0.501148 12 0.5H6C5.60253 0.501148 5.22166 0.659552 4.94061 0.940608C4.65955 1.22166 4.50115 1.60253 4.5 2V2.75H2.25C1.85253 2.75115 1.47166 2.90955 1.19061 3.19061C0.909551 3.47166 0.751148 3.85253 0.75 4.25V20C0.751148 20.3975 0.909551 20.7783 1.19061 21.0594C1.47166 21.3404 1.85253 21.4989 2.25 21.5H9.75V20H2.25V4.25H4.5V6.5H13.5V4.25H15.75V11H17.25V4.25C17.2489 3.85253 17.0904 3.47166 16.8094 3.19061C16.5283 2.90955 16.1475 2.75115 15.75 2.75ZM12 5H6V2H12V5Z" fill="#A3A3A3"/>
</svg>
