<svg width="47" height="38" viewBox="0 0 47 38" fill="none" xmlns="http://www.w3.org/2000/svg">
<path d="M29.6172 31.4285C28.3177 31.4309 27.0305 31.1737 25.8299 30.6718C24.6292 30.1699 23.5388 29.4332 22.6215 28.5041C22.6052 28.4874 22.593 28.4672 22.5858 28.445C22.5785 28.4228 22.5764 28.3992 22.5796 28.3761C22.5828 28.3529 22.5913 28.3308 22.6043 28.3114C22.6173 28.2921 22.6346 28.2761 22.6547 28.2645C23.7586 27.6181 24.7735 26.8281 25.6735 25.9148C28.526 23.0352 29.9523 19.4501 29.9523 15.1596C29.9523 10.8131 28.526 7.19968 25.6735 4.31933C22.8209 1.43898 19.2407 -0.00079836 14.933 3.32112e-07C10.6823 3.32112e-07 7.13074 1.43978 4.27845 4.31933C1.42615 7.19888 0 10.8123 0 15.1596C0 19.4507 1.42615 23.0356 4.27845 25.9144C7.13074 28.7931 10.6823 30.2329 14.933 30.2337C15.1633 30.2337 15.3916 30.2289 15.6179 30.2205C15.6423 30.2197 15.6666 30.225 15.6886 30.2359C15.7105 30.2468 15.7295 30.2631 15.7437 30.2832C18.7411 34.4843 23.8337 37.251 29.6172 37.251C36.9717 37.251 43.2129 32.7783 45.4428 26.5701C45.4501 26.5492 45.4529 26.5269 45.451 26.5048C45.449 26.4827 45.4424 26.4612 45.4315 26.4419C45.4206 26.4227 45.4057 26.406 45.3879 26.393C45.37 26.38 45.3496 26.3711 45.328 26.3668L38.9389 25.1129C38.9045 25.1062 38.8689 25.1118 38.8382 25.1288C38.8075 25.1458 38.7836 25.1731 38.7707 25.2059C38.0341 27.0465 36.7688 28.6226 35.1376 29.7315C33.5064 30.8404 31.5838 31.4314 29.6172 31.4285ZM7.05979 15.1596C7.05979 12.7707 7.80887 10.7913 9.30703 9.2213C10.8052 7.65134 12.6948 6.86715 14.9758 6.86875C17.3148 6.86875 19.2191 7.65333 20.6888 9.2225C22.1585 10.7917 22.8929 12.7711 22.8921 15.1608C22.8921 17.5228 22.1577 19.488 20.6888 21.0563C19.2199 22.6247 17.3156 23.4101 14.9758 23.4125C12.6942 23.4125 10.8047 22.6206 9.30703 21.0367C7.8094 19.4529 7.06032 17.4939 7.05979 15.1596Z" fill="#006AFF"/>
<path d="M40.1653 17.8048C40.1329 17.805 40.1012 17.7947 40.075 17.7753C40.0487 17.7559 40.0294 17.7285 40.0198 17.6972C40.0102 17.6659 40.0108 17.6322 40.0215 17.6013C40.0323 17.5703 40.0526 17.5437 40.0795 17.5253L42.4102 15.9119C43.7646 15.0006 44.7195 14.0718 45.275 13.1253C45.8305 12.1789 46.1082 11.1363 46.1082 9.99763C46.1082 8.26234 45.5136 6.83401 44.3243 5.71265C43.135 4.59129 41.4032 4.0306 39.1288 4.0306C36.8892 4.0306 35.1315 4.62217 33.8557 5.8053C32.6065 6.9626 31.9437 8.53509 31.8672 10.5228C31.8661 10.5596 31.8779 10.5956 31.9006 10.6245C31.9232 10.6533 31.9553 10.6732 31.991 10.6805L36.2173 11.5139C36.239 11.5181 36.2614 11.5174 36.2828 11.5119C36.3042 11.5064 36.3242 11.4962 36.3414 11.4821C36.3585 11.468 36.3724 11.4503 36.3821 11.4302C36.3917 11.4101 36.3969 11.3881 36.3973 11.3658C36.4511 9.54291 37.3352 8.63134 39.0496 8.63107C39.6563 8.63107 40.1293 8.80625 40.4688 9.15661C40.8083 9.50697 40.9776 9.9364 40.9768 10.4449C40.9768 11.5138 40.291 12.5565 38.9195 13.573L32.5216 18.3899C32.5027 18.4041 32.4873 18.4226 32.4767 18.4439C32.4661 18.4652 32.4606 18.4887 32.4607 18.5125V22.0155C32.4606 22.0357 32.4645 22.0556 32.4721 22.0741C32.4797 22.0927 32.4908 22.1096 32.5049 22.1238C32.519 22.138 32.5357 22.1493 32.5541 22.157C32.5725 22.1646 32.5923 22.1686 32.6122 22.1685H46.3717C46.3917 22.1686 46.4114 22.1646 46.4298 22.157C46.4483 22.1493 46.465 22.1381 46.4791 22.1238C46.4933 22.1096 46.5045 22.0928 46.5121 22.0742C46.5197 22.0556 46.5237 22.0357 46.5237 22.0155V17.9582C46.5237 17.9175 46.5077 17.8785 46.4792 17.8498C46.4507 17.821 46.412 17.8048 46.3717 17.8048H40.1653Z" fill="#006AFF"/>
</svg>
