<svg width="22" height="22" viewBox="0 0 22 22" fill="none" xmlns="http://www.w3.org/2000/svg">
<path d="M15.17 10.325L12.56 7.0625C12.4196 6.88709 12.2415 6.74548 12.039 6.64812C11.8365 6.55076 11.6147 6.50014 11.39 6.5H2C1.60218 6.5 1.22064 6.65804 0.93934 6.93934C0.658035 7.22064 0.5 7.60218 0.5 8V20C0.5 20.3978 0.658035 20.7794 0.93934 21.0607C1.22064 21.342 1.60218 21.5 2 21.5H14C14.3978 21.5 14.7794 21.342 15.0607 21.0607C15.342 20.7794 15.5 20.3978 15.5 20V11.2625C15.4997 10.9216 15.3833 10.5909 15.17 10.325ZM5.75 8H10.25V10.25H5.75V8ZM10.25 20H5.75V15.5H10.25V20ZM11.75 20V15.5C11.75 15.1022 11.592 14.7206 11.3107 14.4393C11.0294 14.158 10.6478 14 10.25 14H5.75C5.35218 14 4.97064 14.158 4.68934 14.4393C4.40804 14.7206 4.25 15.1022 4.25 15.5V20H2V8H4.25V10.25C4.25 10.6478 4.40804 11.0294 4.68934 11.3107C4.97064 11.592 5.35218 11.75 5.75 11.75H10.25C10.6478 11.75 11.0294 11.592 11.3107 11.3107C11.592 11.0294 11.75 10.6478 11.75 10.25V8.45L14 11.2625V20H11.75Z" fill="white"/>
<path d="M20 14H17.75V12.5H20V2H5V4.25H3.5V2C3.5 1.60218 3.65804 1.22064 3.93934 0.93934C4.22064 0.658035 4.60218 0.5 5 0.5H20C20.3978 0.5 20.7794 0.658035 21.0607 0.93934C21.342 1.22064 21.5 1.60218 21.5 2V12.5C21.5 12.8978 21.342 13.2794 21.0607 13.5607C20.7794 13.842 20.3978 14 20 14Z" fill="white"/>
<path d="M18.5 3.5H14V5H18.5V3.5Z" fill="white"/>
<path d="M18.5 6.5H15.5V8H18.5V6.5Z" fill="white"/>
</svg>
