<svg width="17" height="17" viewBox="0 0 17 17" fill="none" xmlns="http://www.w3.org/2000/svg">
<rect width="16" height="16" transform="translate(0.342773 0.0625)" fill="white" style="mix-blend-mode:multiply"/>
<path d="M8.34278 15.0625C6.95831 15.0625 5.60493 14.652 4.45378 13.8828C3.30264 13.1136 2.40543 12.0204 1.87562 10.7413C1.34581 9.4622 1.20718 8.05474 1.47728 6.69687C1.74738 5.339 2.41406 4.09172 3.39303 3.11276C4.372 2.13379 5.61928 1.4671 6.97714 1.19701C8.33501 0.92691 9.74248 1.06553 11.0216 1.59535C12.3006 2.12516 13.3939 3.02237 14.1631 4.17351C14.9322 5.32466 15.3428 6.67803 15.3428 8.0625C15.3428 9.91902 14.6053 11.6995 13.2925 13.0122C11.9798 14.325 10.1993 15.0625 8.34278 15.0625ZM8.34278 2.0625C7.15609 2.0625 5.99605 2.4144 5.00936 3.07369C4.02266 3.73297 3.25363 4.67005 2.7995 5.7664C2.34537 6.86276 2.22655 8.06916 2.45806 9.23304C2.68958 10.3969 3.26102 11.466 4.10014 12.3051C4.93925 13.1443 6.00835 13.7157 7.17224 13.9472C8.33612 14.1787 9.54252 14.0599 10.6389 13.6058C11.7352 13.1517 12.6723 12.3826 13.3316 11.3959C13.9909 10.4092 14.3428 9.24919 14.3428 8.0625C14.3428 6.4712 13.7106 4.94508 12.5854 3.81986C11.4602 2.69464 9.93408 2.0625 8.34278 2.0625Z" fill="#262833"/>
<path d="M10.6378 11.0625L7.84278 8.2675V3.5625H8.84278V7.8525L11.3428 10.3575L10.6378 11.0625Z" fill="#262833"/>
</svg>
